# xmcd CD database file
#
# Track frame offsets:
#	150
#	24723
#	48179
#	67589
#	84561
#	107104
#	124036
#	142282
#	159197
#	175477
#	186870
#	203978
#	218445
#	239807
#	264876
#	283453
#
# Disc length: 4069 seconds
#
# Revision: 0
# Processed by: cddbd v1.5.2PL0 Copyright (c) Steve Scherf et al.
# Submitted via: CDex 1.70beta2
#
DISCID=eb0fe310
DTITLE=Diverse - Blue Rose Nuggets 40 - Season 4 - MP3
DYEAR=2009
DGENRE=Country
TTITLE0=Little Blue - Straight For The Moon
TTITLE1=James McMurtry - Restless (Live)
TTITLE2=Corb Lund - A Game In Town Like This
TTITLE3=Jon Dee Graham - Majetsy Of Love
TTITLE4=Blue Rose Rockestra - Mary Jane's Last Dance (Live)
TTITLE5=Wrinkle Nech Mules - Dopamine Dream
TTITLE6=Dashboard Saviors - G.I. Joe
TTITLE7=Austin Collins - Broken
TTITLE8=Tift Merritt - Write My Ticket Home
TTITLE9=Kris Kristofferson - Closer To The Bone
TTITLE10=US Rails - Rainwater
TTITLE11=Bottle Rockets - Financing His Romance (Live)
TTITLE12=Jason and The Scorchers - Beat On The Mountain
TTITLE13=Elliott Murphy - Canaries In The Wind (Live)
TTITLE14=Driveway - Butterfly
TTITLE15=Joseph Parsons Band - Heavens Above (Live)
EXTD=YEAR: 2009
EXTT0=
EXTT1=
EXTT2=
EXTT3=
EXTT4=
EXTT5=
EXTT6=
EXTT7=
EXTT8=
EXTT9=
EXTT10=
EXTT11=
EXTT12=
EXTT13=
EXTT14=
EXTT15=
PLAYORDER=
